<?xml version="1.0" standalone="no"?>
<svg xmlns="http://www.w3.org/2000/svg" viewBox="0 0 144.4 29" width="144.4" height="29"><path fill="#0b005d" fill-rule="nonzero" d="M6.17 1.03L4.03 1.03L4.03 8.09L5.69 8.09Q7.20 8.09 7.76 7.69Q8.33 7.30 8.35 6.14L8.35 6.14Q8.93 5.98 9.50 5.98L9.50 5.98Q9.46 6.79 9.46 8.59L9.46 8.59Q9.46 10.56 9.50 11.38L9.50 11.38Q8.86 11.38 8.40 11.26L8.40 11.26Q8.30 10.01 7.74 9.56Q7.18 9.12 5.69 9.12L5.69 9.12L4.03 9.12L4.03 12.77Q4.03 13.80 4.25 14.34Q4.46 14.88 4.91 15.08Q5.35 15.29 6.17 15.34L6.17 15.34Q6.29 15.67 6.29 16.37L6.29 16.37Q5.18 16.30 3.26 16.30L3.26 16.30Q0.94 16.30 0 16.37L0 16.37Q0 15.67 0.12 15.34L0.12 15.34Q1.08 15.29 1.43 14.87Q1.78 14.45 1.78 13.25L1.78 13.25L1.78 3.12Q1.78 1.92 1.43 1.50Q1.08 1.08 0.12 1.03L0.12 1.03Q0 0.70 0 0L0 0Q1.58 0.07 4.01 0.07L4.01 0.07Q8.30 0.07 10.68 0L10.68 0Q10.92 2.64 11.18 3.79L11.18 3.79Q10.82 4.08 10.10 4.08L10.10 4.08Q9.98 2.74 9.13 1.88Q8.28 1.03 6.17 1.03L6.17 1.03ZM13.94 16.34Q13.94 15.60 14.06 15.26L14.06 15.26Q14.66 15.22 14.96 15.07Q15.26 14.93 15.38 14.57Q15.50 14.21 15.50 13.49L15.50 13.49L15.50 7.08Q15.50 6.38 15.38 6.02Q15.26 5.66 14.96 5.52Q14.66 5.38 14.06 5.33L14.06 5.33Q13.94 4.97 13.94 4.25L13.94 4.25Q15.48 4.30 16.63 4.30L16.63 4.30Q17.59 4.30 19.27 4.25L19.27 4.25Q19.27 4.99 19.18 5.33L19.18 5.33Q18.31 5.38 18.01 5.71Q17.71 6.05 17.71 7.08L17.71 7.08L17.71 13.49Q17.71 14.52 18.01 14.87Q18.31 15.22 19.18 15.26L19.18 15.26Q19.27 15.62 19.27 16.34L19.27 16.34Q17.64 16.30 16.63 16.30L16.63 16.30Q15.43 16.30 13.94 16.34L13.94 16.34ZM34.56 4.30Q35.47 4.30 36.58 4.25L36.58 4.25Q36.58 4.97 36.48 5.33L36.48 5.33Q35.98 5.38 35.71 5.59Q35.45 5.81 35.34 6.32Q35.23 6.84 35.23 7.85L35.23 7.85L35.23 16.32Q34.92 16.46 34.25 16.46L34.25 16.46L25.63 6.94L25.63 12.70Q25.63 13.73 25.76 14.26Q25.90 14.78 26.21 15Q26.52 15.22 27.12 15.26L27.12 15.26Q27.24 15.65 27.24 16.34L27.24 16.34Q25.94 16.30 25.10 16.30L25.10 16.30Q23.98 16.30 22.92 16.34L22.92 16.34Q22.92 15.65 23.04 15.26L23.04 15.26Q23.64 15.22 23.94 15Q24.24 14.78 24.37 14.26Q24.50 13.73 24.50 12.70L24.50 12.70L24.50 5.69L24.48 5.66Q24.31 5.50 24.05 5.44Q23.78 5.38 23.04 5.33L23.04 5.33Q22.92 4.90 22.92 4.25L22.92 4.25Q23.78 4.30 24.60 4.30L24.60 4.30Q25.34 4.30 26.11 4.25L26.11 4.25L34.10 13.20L34.10 7.85Q34.10 6.84 33.97 6.32Q33.84 5.81 33.53 5.59Q33.22 5.38 32.59 5.33L32.59 5.33Q32.50 4.78 32.50 4.25L32.50 4.25Q33.70 4.30 34.56 4.30L34.56 4.30ZM40.22 16.34Q40.22 15.60 40.34 15.26L40.34 15.26Q40.92 15.22 41.23 15.07Q41.54 14.93 41.68 14.54Q41.81 14.16 41.81 13.39L41.81 13.39L41.81 7.08Q41.81 6.38 41.68 6.02Q41.54 5.66 41.24 5.52Q40.94 5.38 40.34 5.33L40.34 5.33Q40.25 4.94 40.25 4.25L40.25 4.25Q41.59 4.30 43.34 4.30L43.34 4.30Q44.14 4.30 44.54 4.27L44.54 4.27L45.82 4.25Q49.30 4.25 51.54 5.47Q53.78 6.70 53.78 9.98L53.78 9.98Q53.78 13.73 51.24 15.01Q48.70 16.30 45.79 16.30L45.79 16.30Q42.34 16.30 40.22 16.34L40.22 16.34ZM45.89 15.22Q47.62 15.22 48.80 14.82Q49.99 14.42 50.70 13.34Q51.41 12.26 51.41 10.30L51.41 10.30Q51.41 7.63 49.74 6.46Q48.07 5.28 45.50 5.28L45.50 5.28Q44.52 5.28 44.02 5.42L44.02 5.42L44.02 13.34Q44.02 14.11 44.16 14.51Q44.30 14.90 44.70 15.06Q45.10 15.22 45.89 15.22L45.89 15.22ZM65.04 13.30Q65.04 15.74 64.72 17.26Q64.39 18.77 63.40 19.97Q62.40 21.17 60.38 22.27L60.38 22.27Q60.05 22.08 59.98 21.65L59.98 21.65Q61.42 20.42 62.10 19.04Q62.78 17.66 62.78 15.48L62.78 15.48L62.78 3.12Q62.78 1.92 62.44 1.50Q62.09 1.08 61.13 1.03L61.13 1.03Q61.01 0.70 61.01 0L61.01 0Q62.06 0.07 63.91 0.07L63.91 0.07Q65.95 0.07 66.82 0L66.82 0Q66.82 0.70 66.70 1.03L66.70 1.03Q65.76 1.08 65.40 1.51Q65.04 1.94 65.04 3.12L65.04 3.12L65.04 13.30ZM76.10 16.51Q74.04 16.51 72.46 15.74Q70.87 14.98 70.00 13.58Q69.12 12.19 69.12 10.34L69.12 10.34Q69.12 8.52 70.00 7.10Q70.87 5.69 72.47 4.91Q74.06 4.13 76.15 4.13L76.15 4.13Q78.22 4.13 79.80 4.90Q81.38 5.66 82.26 7.07Q83.14 8.47 83.14 10.30L83.14 10.30Q83.14 12.14 82.26 13.55Q81.38 14.95 79.79 15.73Q78.19 16.51 76.10 16.51L76.10 16.51ZM76.44 15.41Q78.38 15.41 79.52 14.11Q80.66 12.82 80.66 10.66L80.66 10.66Q80.66 9.10 80.04 7.86Q79.42 6.62 78.30 5.93Q77.18 5.23 75.79 5.23L75.79 5.23Q73.85 5.23 72.72 6.54Q71.59 7.85 71.59 9.98L71.59 9.98Q71.59 11.59 72.22 12.83Q72.84 14.06 73.94 14.74Q75.05 15.41 76.44 15.41L76.44 15.41ZM93.26 9.79Q95.16 9.91 96.28 10.67Q97.39 11.42 97.39 12.89L97.39 12.89Q97.39 14.45 96.08 15.37Q94.78 16.30 92.16 16.30L92.16 16.30Q88.63 16.30 86.28 16.34L86.28 16.34Q86.28 15.60 86.40 15.26L86.40 15.26Q86.98 15.22 87.29 15.07Q87.60 14.93 87.73 14.54Q87.86 14.16 87.86 13.39L87.86 13.39L87.86 7.08Q87.86 6.38 87.73 6.02Q87.60 5.66 87.30 5.52Q87.00 5.38 86.40 5.33L86.40 5.33Q86.30 4.94 86.30 4.25L86.30 4.25Q87.41 4.30 88.49 4.30L88.49 4.30L90.26 4.27Q90.77 4.25 91.56 4.25L91.56 4.25Q93.79 4.25 95.06 4.90Q96.34 5.54 96.34 6.91L96.34 6.91Q96.34 8.04 95.51 8.83Q94.68 9.62 93.26 9.79L93.26 9.79ZM93.98 7.46Q93.98 5.33 91.06 5.33L91.06 5.33Q90.55 5.33 90.07 5.42L90.07 5.42L90.07 9.50L90.74 9.50Q92.54 9.50 93.26 8.98Q93.98 8.45 93.98 7.46L93.98 7.46ZM91.82 15.24Q94.90 15.24 94.90 13.15L94.90 13.15Q94.90 10.66 90.55 10.66L90.55 10.66L90.07 10.66L90.07 13.46Q90.07 14.54 90.43 14.89Q90.79 15.24 91.82 15.24L91.82 15.24Z" transform="translate(0, 3.365)"></path><line x1="106.392" y1="2%" x2="106.392" y2="98%" stroke="#0b005d" stroke-linecap="round"></line><g fill="#305699" color="#305699" transform="translate(115.392 0) scale(0.6041667)"><svg width="48.0" height="48.0" x="0.0" y="0.0" viewBox="0 0 48 48"><path fill="currentColor" fill-rule="evenodd" d="M28 24a4 4 0 1 1-8 0 4 4 0 0 1 8 0M26 0c12.318 1.024 22 11.367 22 24 0 12.505-9.489 22.772-21.631 23.967l-.37.033v-4.018C36.11 42.974 44 34.412 44 24c0-10.296-7.71-18.782-17.655-19.948L26 4.015V0zm-4 0v4.015C11.894 5.023 4 13.586 4 24c0 10.294 7.716 18.78 17.657 19.945l.343.037V48C9.684 46.979 0 36.631 0 24 0 11.367 9.684 1.024 22 0zm-9.82 26c.953 5.672 5.874 10 11.82 10 5.946 0 10.867-4.328 11.82-10h4.041c-.984 7.89-7.7 14-15.861 14-8.156 0-14.876-6.11-15.861-14zM24 16a8 8 0 0 1 8 8 8 8 0 1 1-8-8zm0-8c8.047 0 14.69 5.941 15.816 13.672l.045.328h-4.04c-.954-5.674-5.875-10-11.82-10-5.844 0-10.698 4.178-11.768 9.708L12.18 22H8.14C9.125 14.11 15.844 8 24 8z"></path></svg></g></svg>